<mxfile host="Electron" modified="2023-06-21T05:23:54.335Z" agent="Mozilla/5.0 (Macintosh; Intel Mac OS X 10_15_7) AppleWebKit/537.36 (KHTML, like Gecko) draw.io/21.4.0 Chrome/112.0.5615.204 Electron/24.5.1 Safari/537.36" version="21.4.0" etag="K81fHVtRZNqq6vvaTRfR" type="device">
  <diagram name="Page-1" id="k-mCYI5a-6djnXxxm9TU">
    <mxGraphModel dx="1026" dy="658" grid="1" gridSize="10" guides="1" tooltips="1" connect="1" arrows="1" fold="1" page="1" pageScale="1" pageWidth="850" pageHeight="1100" math="0" shadow="0">
      <root>
        <mxCell id="0" />
        <mxCell id="1" parent="0" />
        <mxCell id="Pur5mQGr_GA0DPuU1__K-4" style="edgeStyle=orthogonalEdgeStyle;rounded=0;orthogonalLoop=1;jettySize=auto;html=1;exitX=1;exitY=0.5;exitDx=0;exitDy=0;entryX=0;entryY=0.5;entryDx=0;entryDy=0;" parent="1" source="Pur5mQGr_GA0DPuU1__K-1" target="Pur5mQGr_GA0DPuU1__K-2" edge="1">
          <mxGeometry relative="1" as="geometry" />
        </mxCell>
        <mxCell id="Pur5mQGr_GA0DPuU1__K-1" value="&lt;font color=&quot;#0000ff&quot;&gt;Downstream&lt;br&gt;&lt;/font&gt;&lt;br&gt;&lt;font color=&quot;#990000&quot; style=&quot;font-size: 16px;&quot;&gt;curl&lt;/font&gt;" style="rounded=1;whiteSpace=wrap;html=1;" parent="1" vertex="1">
          <mxGeometry width="120" height="120" as="geometry" />
        </mxCell>
        <mxCell id="Pur5mQGr_GA0DPuU1__K-5" style="edgeStyle=orthogonalEdgeStyle;rounded=0;orthogonalLoop=1;jettySize=auto;html=1;exitX=1;exitY=0.5;exitDx=0;exitDy=0;" parent="1" source="Pur5mQGr_GA0DPuU1__K-2" target="Pur5mQGr_GA0DPuU1__K-3" edge="1">
          <mxGeometry relative="1" as="geometry" />
        </mxCell>
        <mxCell id="Pur5mQGr_GA0DPuU1__K-2" value="&lt;font style=&quot;font-size: 16px;&quot;&gt;Envoy Proxy&lt;br&gt;&lt;br&gt;&lt;br&gt;&lt;/font&gt;" style="rounded=1;whiteSpace=wrap;html=1;fontColor=#990000;horizontal=1;verticalAlign=middle;" parent="1" vertex="1">
          <mxGeometry x="240" width="200" height="120" as="geometry" />
        </mxCell>
        <mxCell id="Pur5mQGr_GA0DPuU1__K-3" value="&lt;font color=&quot;#0000ff&quot;&gt;Upstream&lt;br&gt;&lt;/font&gt;&lt;br&gt;&lt;font style=&quot;font-size: 16px;&quot;&gt;httpbin&lt;/font&gt;" style="rounded=1;whiteSpace=wrap;html=1;fontColor=#990000;" parent="1" vertex="1">
          <mxGeometry x="560" width="120" height="120" as="geometry" />
        </mxCell>
        <mxCell id="2" value="&lt;font style=&quot;font-size: 16px;&quot;&gt;jwt_issuer&lt;/font&gt;" style="rounded=1;whiteSpace=wrap;html=1;fontColor=#990000;" parent="1" vertex="1">
          <mxGeometry x="280" y="200" width="120" height="120" as="geometry" />
        </mxCell>
        <mxCell id="6" style="edgeStyle=none;html=1;exitX=0.5;exitY=1;exitDx=0;exitDy=0;entryX=0.5;entryY=0;entryDx=0;entryDy=0;fontSize=16;fontColor=#990000;" parent="1" source="3" target="2" edge="1">
          <mxGeometry relative="1" as="geometry" />
        </mxCell>
        <mxCell id="3" value="&lt;font color=&quot;#0000ff&quot;&gt;wasm&lt;br&gt;&lt;/font&gt;&lt;b&gt;add_auth_header&lt;/b&gt;" style="rounded=1;whiteSpace=wrap;html=1;fontColor=#990000;" parent="1" vertex="1">
          <mxGeometry x="280" y="70" width="120" height="40" as="geometry" />
        </mxCell>
        <mxCell id="7" value="&lt;b&gt;Four additional HTTP headers&lt;br&gt;&lt;/b&gt;&lt;br&gt;by Envoy:&lt;br&gt;&lt;ul&gt;&lt;li&gt;X-Envoy-Expected-Rq-Timeout-Ms&lt;/li&gt;&lt;li&gt;X-Request-Id&lt;/li&gt;&lt;/ul&gt;&lt;br&gt;by wasm plugin:&lt;br&gt;&lt;ul&gt;&lt;li&gt;Authorization&lt;/li&gt;&lt;li&gt;From-Proxy-Wasm&lt;/li&gt;&lt;/ul&gt;" style="rounded=0;whiteSpace=wrap;html=1;align=left;spacingLeft=6;spacingRight=6;" parent="1" vertex="1">
          <mxGeometry x="480" y="200" width="240" height="200" as="geometry" />
        </mxCell>
        <mxCell id="8" value="" style="endArrow=none;dashed=1;html=1;exitX=0.25;exitY=0;exitDx=0;exitDy=0;" parent="1" source="7" edge="1">
          <mxGeometry width="50" height="50" relative="1" as="geometry">
            <mxPoint x="610" y="100" as="sourcePoint" />
            <mxPoint x="480" y="60" as="targetPoint" />
          </mxGeometry>
        </mxCell>
      </root>
    </mxGraphModel>
  </diagram>
</mxfile>
